 http://www.imdb.com/title/tt1071875/

As Johnny Blaze hides out in Eastern Europe, he is called upon to 
stop the devil, who is trying to take human form.
 
http://www.shotpix.com/images/24178688911512842029.png 
http://www.shotpix.com/images/87693497922400615770.png

Format : AVI
 Format/Info : Audio Video Interleave
 File size : 1.74 GiB
 Duration : 1h 35mn
 Overall bit rate : 2 611 Kbps
 Writing application : VirtualDubMod 1.5.10.2 (build 2540/release)
 Writing library : VirtualDubMod build 2540/release
 
Video
 ID : 0
 Format : MPEG-4 Visual
 Format profile : Advanced Simple@L5
 Format settings, BVOP : 2
 Format settings, QPel : No
 Format settings, GMC : No warppoints
 Format settings, Matrix : Default (H.263)
 Muxing mode : Packed bitstream
 Codec ID : XVID
 Codec ID/Hint : XviD
 Duration : 1h 35mn
 Bit rate : 2 218 Kbps
 Width : 720 pixels
 Height : 304 pixels
 Display aspect ratio : 2.35:1
 Frame rate : 23.976 fps
 Color space : YUV
 Chroma subsampling : 4:2:0
 Bit depth : 8 bits
 Scan type : Progressive
 Compression mode : Lossy
 Bits/(Pixel*Frame) : 0.423
 Stream size : 1.48 GiB (85%)
 Writing library : XviD 64
 
Audio
 ID : 1
 Format : AC-3
 Format/Info : Audio Coding 3
 Mode extension : CM (complete main)
 Format settings, Endianness : Big
 Codec ID : 2000
 Duration : 1h 35mn
 Bit rate mode : Constant
 Bit rate : 384 Kbps
 Channel(s) : 6 channels
 Channel positions : Front: L C R, Side: L R, LFE
 Sampling rate : 48.0 KHz
 Bit depth : 16 bits
 Compression mode : Lossy
 Stream size : 262 MiB (15%)
 Alignment : Split accross interleaves
 Interleave, duration : 42 ms (1.00 video frame)
 Interleave, preload duration : 500 ms 